<?xml version="1.0" encoding="utf-8"?>
<!-- Generator: Adobe Illustrator 24.2.3, SVG Export Plug-In . SVG Version: 6.00 Build 0)  -->
<svg version="1.1" id="Layer_1" xmlns="http://www.w3.org/2000/svg" xmlns:xlink="http://www.w3.org/1999/xlink" x="0px" y="0px"
	 viewBox="0 0 612 332.8" style="enable-background:new 0 0 612 332.8;" xml:space="preserve">
<style type="text/css">
	.st0{fill:#B2963F;}
</style>
<g>
	<g>
		<g>
			<polygon points="273.6,223.3 180.2,87.6 137,159.4 67.6,45.5 0,45.5 0,332 62.7,332 62.7,159 135.7,274.2 137,274.2 210.4,158.1 
				210.4,332 273.6,332 273.6,332 273.6,332 			"/>
			<polygon points="544.4,45.5 475,159.4 431.8,87.6 338.4,223.3 338.4,332 338.4,332 338.4,332 401.6,332 401.6,158.1 475,274.2 
				476.3,274.2 549.3,159 549.3,332 612,332 612,45.5 			"/>
		</g>
		<g>
			<path class="st0" d="M306,157.8L306,157.8L306,157.8L374.1,62c3.5-3.9,19.4-38.9-16.2-57.9c-10.9-5.8-29.4-3.2-38.4,4
				c-6.1,4.8-10.4,10.4-13.5,15.7c-3.1-5.4-7.4-10.9-13.5-15.7c-9-7.1-27.5-9.8-38.4-4c-35.6,19-19.7,54-16.2,57.9L306,157.8z"/>
		</g>
	</g>
</g>
</svg>
