<?xml version="1.0" encoding="utf-8"?>
<!-- Generator: Adobe Illustrator 24.2.3, SVG Export Plug-In . SVG Version: 6.00 Build 0)  -->
<svg version="1.1" id="Layer_1" xmlns="http://www.w3.org/2000/svg" xmlns:xlink="http://www.w3.org/1999/xlink" x="0px" y="0px"
	 viewBox="0 0 20.1 18.7" style="enable-background:new 0 0 20.1 18.7;" xml:space="preserve">
<style type="text/css">
	.st0{clip-path:url(#SVGID_2_);fill:#B2963F;}
</style>
<g>
	<defs>
		<rect id="SVGID_1_" y="0" width="20.1" height="18.7"/>
	</defs>
	<clipPath id="SVGID_2_">
		<use xlink:href="#SVGID_1_"  style="overflow:visible;"/>
	</clipPath>
	<path class="st0" d="M2.9,11.3c-0.1,0-0.1,0-0.2-0.1C1.4,10.3,0.6,9,0.2,7.5C-0.2,5.9,0,4.5,0.6,3.3c1-2.1,2.8-3.2,5.2-3.3
		c1.8-0.1,3.3,0.6,4.5,2c0.1,0.1,0.1,0.3,0,0.4c-0.1,0.1-0.3,0.1-0.4,0c-1.1-1.2-2.4-1.8-4-1.8C3.6,0.7,2,1.7,1.1,3.6
		C0.6,4.7,0.5,5.9,0.8,7.3c0.3,1.4,1.1,2.5,2.2,3.4c0.1,0.1,0.2,0.3,0.1,0.4C3.1,11.2,3,11.3,2.9,11.3"/>
	<path class="st0" d="M16.3,12.3c-0.2,0-0.3-0.1-0.3-0.3c0-0.2,0.1-0.3,0.3-0.4c0.1,0,0.2,0,0.3,0c0.4,0,0.7-0.1,0.9-0.4
		c0.2-0.3,0.4-0.7,0.4-1c0-0.1,0-0.2,0.2-0.4c0.1-0.1,0.3-0.2,0.4-0.4c1.7-2.2,1.2-5.5-0.9-7.2c-1-0.8-2.2-1.2-3.7-1.1
		c-1.1,0.1-2.2,0.4-3.2,1.1c-0.3,0.2-0.5,0.4-0.7,0.6C9.8,3,9.7,3.2,9.6,3.3C8.9,3.9,8.3,4.5,7.7,5.1c-0.3,0.3-0.6,0.6-0.9,1
		C6.6,6.2,6.5,6.4,6.5,6.5C6.4,6.7,6.2,6.7,6,6.7C5.9,6.6,5.8,6.4,5.9,6.2C6,6,6.1,5.8,6.3,5.7C6.6,5.3,6.9,5,7.2,4.7
		c0.6-0.6,1.2-1.3,1.9-1.9c0.1-0.1,0.2-0.2,0.3-0.3C9.7,2.2,9.9,2,10.3,1.8c1.2-0.8,2.3-1.2,3.6-1.2c1.6-0.1,2.9,0.3,4.1,1.2
		c2.4,1.9,2.9,5.6,1,8.1c-0.2,0.3-0.4,0.4-0.5,0.5c0,0.5-0.3,1-0.5,1.3c-0.4,0.5-0.9,0.6-1.4,0.6C16.5,12.3,16.4,12.3,16.3,12.3
		C16.3,12.3,16.3,12.3,16.3,12.3 M18.4,10.2L18.4,10.2L18.4,10.2"/>
	<path class="st0" d="M18.1,10.5c-0.1,0-0.2,0-0.2-0.1l-1.6-1.6c-1.4-1.4-2.7-2.7-4.1-4.1c-0.1-0.1-0.1-0.1-0.2-0.2
		c-0.1,0-0.1,0.1-0.2,0.2c-0.4,0.4-0.9,0.9-1.3,1.3L10,6.5C8.9,7.7,7.3,7.6,6.4,7L6.3,6.9C6.2,6.8,6.1,6.7,6,6.6
		C5.8,6.5,5.8,6.3,6,6.2C6.1,6,6.3,6,6.4,6.2c0.1,0.1,0.2,0.2,0.3,0.2l0.1,0.1C7.4,7,8.7,7,9.6,6.1l0.5-0.5c0.4-0.4,0.9-0.9,1.3-1.3
		c0.5-0.5,0.8-0.5,1.2,0C14,5.6,15.4,7,16.7,8.4l1.6,1.6c0.1,0.1,0.1,0.3,0,0.4C18.2,10.4,18.2,10.5,18.1,10.5"/>
	<path class="st0" d="M9.7,18.7c-0.2,0-0.4,0-0.6-0.1c-0.6-0.3-1-0.7-1-1.5c-0.1-0.6,0.2-0.9,0.5-1.2c0.5-0.4,0.9-0.8,1.3-1.3
		c0.5-0.6,1-0.5,1.4-0.4l0.1,0c0.5,0.1,0.9,0.5,1.1,0.8c0.2,0.3,0.5,0.3,1,0.2c0.4-0.1,0.7-0.4,0.8-0.8c0-0.2,0-0.4,0-0.6
		c0-0.2,0.1-0.3,0.3-0.4c0.2,0,0.3,0.1,0.4,0.3c0,0.2,0.1,0.5,0,0.8c-0.1,0.6-0.7,1.2-1.3,1.3c-0.2,0-0.6,0.1-0.9,0
		c-0.2,0.8-0.8,1.4-1.4,1.9c-0.2,0.1-0.3,0.3-0.5,0.4C10.4,18.5,10.1,18.7,9.7,18.7 M10.7,14.8c-0.2,0-0.3,0.1-0.4,0.2
		c-0.4,0.5-0.9,1-1.4,1.4c-0.2,0.2-0.3,0.4-0.3,0.6c0.1,0.5,0.3,0.8,0.7,1c0.4,0.2,0.7,0.1,0.9-0.2c0.2-0.2,0.3-0.3,0.5-0.5
		c0.6-0.5,1.1-1,1.3-1.7c-0.1-0.1-0.1-0.1-0.2-0.2c-0.2-0.3-0.4-0.5-0.7-0.5l-0.1,0C10.9,14.8,10.8,14.8,10.7,14.8"/>
	<path class="st0" d="M4.6,13.2C4.6,13.2,4.6,13.2,4.6,13.2l-0.2,0c-0.1,0-0.2,0-0.3,0c-0.6,0-1.1-0.3-1.4-0.8
		c-0.3-0.5-0.2-1.4,0.2-1.9c0.1-0.1,0.2-0.2,0.4-0.4c0.3-0.3,0.7-0.6,1-1c0.3-0.3,0.8-0.5,1.3-0.4c0.5,0.1,1,0.4,1.2,0.8
		C6.9,9.8,7,10.1,7,10.3c0,0.1,0,0.3,0.1,0.4c0,0.2-0.1,0.3-0.2,0.4c-0.2,0-0.3-0.1-0.4-0.2c0-0.2-0.1-0.3-0.1-0.4
		c0-0.2-0.1-0.5-0.2-0.7C6.1,9.5,5.8,9.4,5.5,9.3c-0.3,0-0.6,0-0.8,0.2c-0.3,0.3-0.7,0.7-1,1c-0.1,0.1-0.2,0.2-0.4,0.4
		c-0.2,0.2-0.3,0.8-0.1,1.1c0.2,0.3,0.5,0.5,0.9,0.5c0.1,0,0.2,0,0.3,0l0.1,0c0.2,0,0.3,0.2,0.3,0.3C4.9,13.1,4.8,13.2,4.6,13.2"/>
	<path class="st0" d="M14.8,14.2c-0.2,0-0.5-0.1-0.7-0.3c-1.2-1.2-2.4-2.4-3.5-3.5L10.2,10c-0.1-0.1-0.1-0.3,0-0.4
		c0.1-0.1,0.3-0.1,0.4,0L11,9.9c1.2,1.2,2.4,2.4,3.5,3.5c0.1,0.1,0.3,0.1,0.5,0.1c0.5-0.2,0.9-0.6,0.9-1.1c0-0.3,0-0.4-0.3-0.7
		c-1.3-1.2-2.5-2.5-3.5-3.5c-0.1-0.1-0.1-0.3,0-0.4c0.1-0.1,0.3-0.1,0.4,0c1,1,2.2,2.3,3.5,3.5c0.3,0.3,0.6,0.6,0.5,1.3
		c-0.1,0.7-0.6,1.3-1.4,1.6c0,0,0,0,0,0C15.1,14.2,14.9,14.2,14.8,14.2"/>
	<path class="st0" d="M6.1,15C6,15,5.8,15,5.7,15c-0.7-0.1-1.2-0.7-1.3-1.6c-0.1-0.5,0.2-0.8,0.4-1.1c0.4-0.4,0.8-0.8,1.2-1.2
		c0.2-0.2,0.3-0.3,0.5-0.5c0,0,0.1-0.1,0.1-0.1c0.1,0,0.2-0.1,0.2-0.1c0.1,0,0.2,0,0.3,0c0.3,0,0.7,0.1,1.1,0.4
		c0.5,0.4,0.6,1,0.6,1.5c0,0.1,0,0.1,0,0.2c0,0.2-0.1,0.4-0.2,0.4l0,0c-0.1,0.1-0.3,0.3-0.4,0.4c-0.4,0.4-0.8,0.7-1.1,1.1
		C6.8,14.9,6.5,15,6.1,15 M6.9,11.1c-0.1,0.1-0.3,0.3-0.4,0.4c-0.4,0.4-0.8,0.8-1.2,1.2C5,12.9,5,13.1,5,13.3c0,0.2,0.2,0.9,0.8,1
		c0.4,0.1,0.7,0.1,0.9-0.2c0.3-0.4,0.8-0.8,1.2-1.2c0.1-0.1,0.3-0.3,0.4-0.4c0,0,0,0,0,0c0,0,0-0.1,0-0.1c0-0.4-0.1-0.8-0.4-1
		c-0.2-0.2-0.4-0.2-0.7-0.2C7,11.1,7,11.1,6.9,11.1 M8.3,12.6L8.3,12.6L8.3,12.6z"/>
	<path class="st0" d="M10.4,14.8c-0.2,0-0.3-0.1-0.3-0.3C10,13.2,9.9,13,8.6,12.9c-0.2,0-0.3-0.1-0.3-0.3s0.1-0.3,0.3-0.3
		c0,0,0.1,0,0.1,0c1.6,0.2,1.9,0.7,2,2.1C10.7,14.6,10.6,14.7,10.4,14.8C10.4,14.8,10.4,14.8,10.4,14.8"/>
	<path class="st0" d="M8.3,16.8C8.3,16.8,8.3,16.8,8.3,16.8l-0.2,0c-0.1,0-0.2,0-0.4,0c-0.6,0-1.1-0.4-1.4-1
		c-0.1-0.2-0.1-0.5-0.1-0.7c0-0.1,0-0.2,0-0.3c0-0.2,0.1-0.3,0.3-0.3c0.2,0,0.3,0.1,0.3,0.3c0,0.1,0,0.2,0,0.3c0,0.2,0,0.4,0.1,0.5
		c0.2,0.4,0.5,0.6,0.9,0.7c0.1,0,0.2,0,0.4,0l0.2,0c0.2,0,0.3,0.2,0.3,0.3C8.6,16.7,8.4,16.8,8.3,16.8"/>
</g>
</svg>
