<?xml version="1.0" encoding="utf-8"?>
<!-- Generator: Adobe Illustrator 24.2.3, SVG Export Plug-In . SVG Version: 6.00 Build 0)  -->
<svg version="1.1" id="Layer_1" xmlns="http://www.w3.org/2000/svg" xmlns:xlink="http://www.w3.org/1999/xlink" x="0px" y="0px"
	 viewBox="0 0 612 333" style="enable-background:new 0 0 612 333;" xml:space="preserve">
<style type="text/css">
	.st0{fill:#FFFFFF;}
	.st1{fill:#B2963F;}
</style>
<g>
	<g>
		<g>
			<polygon class="st0" points="275.9,222 184.4,89.1 142.2,159.5 74.3,48 8,48 8,328.5 69.5,328.5 69.5,159 140.9,271.9 
				142.2,271.9 214.1,158.2 214.1,328.5 275.9,328.5 275.9,328.5 275.9,328.5 			"/>
			<polygon class="st0" points="541.1,48 473.1,159.5 430.9,89.1 339.4,222 339.4,328.5 339.4,328.5 339.4,328.5 401.3,328.5 
				401.3,158.2 473.1,271.9 474.4,271.9 545.9,159 545.9,328.5 607.3,328.5 607.3,48 			"/>
		</g>
		<g>
			<path class="st1" d="M307.7,157.9L307.7,157.9L307.7,157.9l66.7-93.8c3.4-3.8,19-38.1-15.9-56.7c-10.7-5.7-28.8-3.1-37.6,3.9
				c-6,4.7-10.2,10.2-13.2,15.4c-3-5.3-7.2-10.7-13.2-15.4c-8.8-7-26.9-9.6-37.6-3.9C222,26,237.6,60.3,241,64.1L307.7,157.9z"/>
		</g>
	</g>
</g>
</svg>
